<svg width="98" height="98" viewBox="0 0 98 98" fill="none" xmlns="http://www.w3.org/2000/svg">
<rect x="0.753848" y="0.753848" width="96.4925" height="96.4925" rx="48.2463" fill="white" stroke="#DEDEDE" stroke-width="1.5077"/>
<path d="M59.6715 71.834H26.8789C27.0911 72.9008 27.6666 73.8611 28.5074 74.5512C29.3483 75.2412 30.4023 75.6184 31.49 75.6184H60.36C59.9109 74.9437 59.6711 74.151 59.6711 73.3404L59.6715 71.834Z" fill="#0F2C64"/>
<path d="M53.8929 62.5704V60.0352H25.629V62.5704C25.6276 62.6276 25.6492 62.6831 25.6889 62.7244C25.7285 62.7657 25.783 62.7897 25.8402 62.7908H53.6721C53.7933 62.7891 53.8908 62.6915 53.8926 62.5704H53.8929Z" fill="#0F2C64"/>
<path d="M53.8926 24.3435C53.8908 24.2224 53.7933 24.1248 53.6721 24.123H25.8402C25.783 24.1242 25.7285 24.1481 25.6889 24.1895C25.6493 24.2308 25.6276 24.2863 25.629 24.3435V58.2011H53.8929L53.8926 24.3435ZM32.2882 54.6376H28.3201V52.8005H32.2882V54.6376ZM32.2882 50.0908H28.3201V48.2537H32.2882V50.0908ZM32.2882 45.544H28.3201V43.7069H32.2882V45.544ZM32.2882 40.9972H28.3201V39.1601H32.2882V40.9972ZM38.5892 54.6378H34.6211V52.8007H38.5892V54.6378ZM38.5892 50.091H34.6211V48.2539H38.5892V50.091ZM38.5892 45.5442H34.6211V43.7071H38.5892V45.5442ZM38.5892 40.9974H34.6211V39.1603H38.5892V40.9974ZM44.8903 54.638H40.9221V52.8009H44.8903V54.638ZM44.8903 50.0912H40.9221V48.2541H44.8903V50.0912ZM44.8903 45.5444H40.9221V43.7073H44.8903V45.5444ZM44.8903 40.9976H40.9221V39.1605H44.8903V40.9976ZM51.1913 54.6382H47.2231V52.8011H51.1913V54.6382ZM51.1913 50.0914H47.2231V48.2543H51.1913V50.0914ZM51.1913 45.5446H47.2231V43.7075H51.1913V45.5446ZM51.1913 40.9978H47.2231V39.1606H51.1913V40.9978ZM51.1913 35.9822H28.3191V28.3306H51.1913V35.9822Z" fill="#0F2C64"/>
<path d="M30.1582 30.166H49.3562V34.1434H30.1582V30.166Z" fill="#0F2C64"/>
<path d="M66.981 48.1055C64.9078 48.1055 62.9197 48.9291 61.4535 50.395C59.9877 51.861 59.1641 53.8491 59.1641 55.9225C59.1641 57.9958 59.9877 59.9838 61.4535 61.4499C62.9196 62.9158 64.9077 63.7394 66.981 63.7394C69.0543 63.7394 71.0423 62.9158 72.5085 61.4499C73.9744 59.9839 74.798 57.9958 74.798 55.9225C74.7949 53.8502 73.9703 51.8638 72.505 50.3984C71.0397 48.9331 69.0534 48.1086 66.981 48.1055L66.981 48.1055ZM61.4697 52.8085C61.455 52.0987 61.7238 51.4125 62.217 50.9019C62.7101 50.3914 63.3866 50.0986 64.0964 50.0888C64.8061 50.0789 65.4905 50.3525 65.9976 50.8493C66.5049 51.3459 66.7929 52.0244 66.7977 52.7342C66.8027 53.444 66.5242 54.1266 66.024 54.6303C65.5238 55.1339 64.8433 55.4171 64.1335 55.4171C63.4343 55.4248 62.7605 55.1542 62.261 54.6649C61.7613 54.1756 61.4766 53.5078 61.4697 52.8085ZM64.2437 61.0113L62.8292 59.8355L69.8102 51.4584L71.2247 52.6341L64.2437 61.0113ZM69.8285 62.1319C69.1415 62.1164 68.4886 61.83 68.0119 61.3351C67.535 60.8402 67.2732 60.1771 67.2832 59.4899C67.2931 58.8029 67.5742 58.1477 68.0651 57.6668C68.5561 57.1861 69.2171 56.9187 69.9041 56.9231C70.5913 56.9275 71.2488 57.2033 71.7336 57.6903C72.2185 58.1773 72.4912 58.836 72.4923 59.5232C72.4833 60.2219 72.198 60.8886 71.6989 61.3773C71.1997 61.8663 70.5272 62.1375 69.8285 62.1319Z" fill="#0F2C64"/>
<path d="M73.9996 33.8689V30.7918C73.9996 29.7024 73.4184 28.6956 72.4748 28.1508C71.5311 27.606 70.3688 27.606 69.4252 28.1508C68.4816 28.6956 67.9004 29.7024 67.9004 30.7918V34.1446H73.7149C73.7894 34.1463 73.8613 34.1181 73.9149 34.0663C73.9685 34.0144 73.9989 33.9434 73.9997 33.869L73.9996 33.8689Z" fill="#0F2C64"/>
<path d="M57.3259 55.9237C57.329 53.5234 58.2251 51.2101 59.8399 49.434C61.4544 47.6582 63.6722 46.5465 66.0615 46.3156V30.7918C66.0659 29.6784 66.4554 28.601 67.1638 27.7422H55.7277V62.5737C55.7254 63.1187 55.508 63.6407 55.1226 64.0261C54.7372 64.4115 54.2152 64.6289 53.6702 64.6312H33.7285V69.9956H60.3112C60.6281 69.995 60.9322 70.1205 61.1562 70.3446C61.3803 70.5687 61.5059 70.8728 61.5053 71.1897V73.3391C61.5083 73.9423 61.7493 74.52 62.1758 74.9466C62.6024 75.3731 63.1801 75.614 63.7833 75.6171H63.7925C64.3926 75.6118 64.9665 75.3708 65.3908 74.9466C65.815 74.5223 66.0559 73.9484 66.0613 73.3483V65.5315C63.6721 65.3005 61.4544 64.1889 59.8397 62.413C58.2249 60.637 57.3288 58.3237 57.3257 55.9234L57.3259 55.9237Z" fill="#0F2C64"/>
<path d="M64.962 52.8096C64.9773 52.587 64.9023 52.3677 64.754 52.2012C64.6055 52.0347 64.3961 51.935 64.1733 51.9247C63.9506 51.9145 63.733 51.9945 63.57 52.1467C63.4069 52.299 63.312 52.5105 63.3069 52.7334C63.3017 52.9565 63.3869 53.1722 63.5426 53.3316C63.6986 53.4912 63.9121 53.5812 64.1353 53.5812C64.3477 53.59 64.5548 53.5134 64.7101 53.3684C64.8655 53.2233 64.9562 53.022 64.962 52.8096Z" fill="#0F2C64"/>
<path d="M69.8287 58.7604C69.6284 58.7756 69.4418 58.8684 69.3092 59.0192C69.1764 59.17 69.1079 59.3667 69.1182 59.5673C69.1287 59.768 69.2173 59.9565 69.3649 60.0928C69.5126 60.229 69.7078 60.3019 69.9086 60.2962C70.1095 60.2904 70.3001 60.2062 70.4396 60.0618C70.5791 59.9173 70.6566 59.7238 70.6555 59.5229C70.6472 59.312 70.5556 59.1132 70.4004 58.97C70.2454 58.8271 70.0397 58.7515 69.8288 58.7605L69.8287 58.7604Z" fill="#0F2C64"/>
</svg>
