<svg width="98" height="98" viewBox="0 0 98 98" fill="none" xmlns="http://www.w3.org/2000/svg">
<rect x="0.753848" y="0.753848" width="96.4925" height="96.4925" rx="48.2463" fill="white" stroke="#DEDEDE" stroke-width="1.5077"/>
<path d="M77.0433 34.8265C76.0447 31.5144 73.8164 28.7903 70.7684 27.155C68.8898 26.1465 66.7758 25.614 64.6559 25.614C63.4321 25.614 62.2363 25.7873 61.0947 26.1126C61.0067 25.9574 60.8781 25.8229 60.7093 25.7326L55.1076 22.7269C54.9894 22.6637 54.8644 22.6271 54.7394 22.6154C54.3631 22.5807 53.9845 22.7688 53.7945 23.1226L50.2454 29.7365L47.2411 28.1237C47.3498 27.5854 47.3412 27.0286 47.1783 26.4885C46.9189 25.6266 46.3386 24.9186 45.5462 24.4935C45.057 24.2308 44.5074 24.0923 43.9547 24.0923C42.7106 24.0923 41.5726 24.7728 40.9846 25.8689C40.703 26.3927 40.5911 26.9577 40.6011 27.5131C40.162 27.3024 39.6756 27.1747 39.1566 27.1747C37.2989 27.1747 35.7877 28.6859 35.7877 30.5437C35.7877 30.6619 35.8111 30.7733 35.8224 30.8884C35.7073 30.8767 35.5954 30.8537 35.4776 30.8537C33.6199 30.8537 32.1087 32.3649 32.1087 34.2226C32.1087 34.6103 32.1877 34.9762 32.3086 35.3223C30.7685 35.6323 29.6048 36.9937 29.6048 38.624C29.6048 40.1416 30.6205 41.4136 32.0036 41.8328V45.2437L24.4954 45.245C23.9593 45.245 23.5253 45.6791 23.5253 46.2152V52.5718C23.5253 52.6417 23.5338 52.7094 23.5478 52.7749C21.1707 55.1759 19.6992 58.4731 19.6992 62.1088C19.6992 69.4267 25.6534 75.3807 32.9711 75.3807C40.2894 75.3807 46.2429 69.4265 46.2429 62.1088C46.2429 58.4731 44.7715 55.1759 42.3951 52.7758C42.4087 52.7099 42.4173 52.6427 42.4173 52.5727V46.2161C42.4173 45.68 41.9832 45.246 41.4471 45.246H33.9411V41.8351C35.3237 41.4154 36.339 40.1442 36.339 38.6263C36.339 38.2387 36.26 37.8718 36.1391 37.5253C37.6792 37.2162 38.8438 35.8543 38.8438 34.224C38.8438 34.1058 38.8204 33.9939 38.8091 33.8779C38.9251 33.8901 39.037 33.9127 39.1552 33.9127C41.0125 33.9127 42.5237 32.4015 42.5237 30.5442C42.5237 30.5306 42.5196 30.5171 42.5196 30.5036C42.9677 30.7143 43.4569 30.8316 43.9506 30.8316C44.8603 30.8316 45.7108 30.4647 46.3331 29.8407L49.3271 31.4475L45.778 38.0609C45.5244 38.5334 45.7018 39.1218 46.1738 39.3749H46.1742L51.775 42.3807C51.9212 42.4588 52.0782 42.4967 52.233 42.4967C52.2614 42.4967 52.2885 42.4877 52.3165 42.4859C53.3015 45.5845 55.4364 48.3218 58.5215 49.9765C60.4001 50.985 62.5137 51.5175 64.6341 51.518H64.6345C69.4181 51.518 73.7933 48.9013 76.0528 44.6894C77.6903 41.6407 78.0409 38.1382 77.0423 34.8266L77.0433 34.8265ZM32.9709 72.1469C27.436 72.1469 22.933 67.644 22.933 62.1094C22.933 56.574 27.4359 52.0707 32.9709 52.0707C38.5058 52.0707 43.0088 56.5736 43.0088 62.1094C43.0088 67.6439 38.506 72.1469 32.9709 72.1469ZM32.9709 40.0537C32.1835 40.0537 31.5428 39.4134 31.5428 38.626C31.5428 37.8382 32.1831 37.1979 32.9709 37.1979C33.7583 37.1979 34.3986 37.8391 34.3986 38.626C34.3986 39.4134 33.7583 40.0537 32.9709 40.0537ZM35.4758 35.6523C34.6884 35.6523 34.0477 35.0119 34.0477 34.2246C34.0477 33.4367 34.6889 32.7964 35.4758 32.7964C36.2632 32.7964 36.9035 33.4376 36.9035 34.2246C36.9035 35.012 36.2623 35.6523 35.4758 35.6523ZM39.1553 31.9728C38.3674 31.9728 37.7271 31.3325 37.7271 30.5451C37.7271 29.7572 38.3683 29.1169 39.1553 29.1169C39.9427 29.1169 40.583 29.7582 40.583 30.5451C40.583 31.3325 39.9422 31.9728 39.1553 31.9728ZM43.2774 28.7207C42.5834 28.348 42.3212 27.4807 42.694 26.7872C42.943 26.3229 43.4263 26.0341 43.9543 26.0341C44.1912 26.0341 44.4172 26.0918 44.6284 26.2046C44.9646 26.3851 45.2101 26.6852 45.3202 27.0503C45.4303 27.4153 45.3915 27.8011 45.2114 28.1378C44.8495 28.8101 43.9601 29.0871 43.2774 28.7207ZM73.7742 43.4654C71.9661 46.8358 68.4644 48.9305 64.6356 48.9305H64.6352C62.9403 48.9305 61.2499 48.5036 59.7451 47.6963C54.7115 44.9956 52.8131 38.7017 55.5129 33.6678C57.3223 30.2974 60.8253 28.2032 64.6551 28.2032C66.3499 28.2032 68.0403 28.6301 69.5452 29.4369C71.9841 30.7455 73.7661 32.9255 74.5657 35.5752C75.3653 38.225 75.0833 41.0275 73.7742 43.4657L73.7742 43.4654Z" fill="#0F2C64"/>
</svg>
