<svg width="98" height="98" viewBox="0 0 98 98" fill="none" xmlns="http://www.w3.org/2000/svg">
<rect x="0.753848" y="0.753848" width="96.4925" height="96.4925" rx="48.2463" fill="white" stroke="#DEDEDE" stroke-width="1.5077"/>
<path d="M42.482 38.3639C42.432 36.593 42.7159 33.4452 41.9753 31.8185C44.9254 30.2491 43.7777 25.6281 40.3937 25.6466H32.1198C25.6631 25.2551 22.7841 31.4309 26.4677 36.0097V38.3639C26.9076 48.9873 42.0439 48.9827 42.482 38.3639ZM28.3517 35.0997C28.7062 33.7493 29.7269 32.6433 31.0853 32.2408H40.1258C40.8634 33.6425 40.5274 36.8108 40.5981 38.3639C40.2906 46.4754 28.6586 46.4737 28.3518 38.3639L28.3517 35.0997Z" fill="#0F2C64"/>
<path d="M77.3127 43.1685C76.7101 42.396 76.5873 41.1713 76.9456 39.5417C77.3098 38.0243 78.3506 36.8254 78.1892 35.0482C78.01 33.1359 76.0318 30.7998 73.969 30.7998C72.4239 30.7998 70.3796 29.3489 69.5697 28.0398C68.7126 26.6738 66.8189 25.6847 64.9631 25.6468C63.145 25.6279 61.5343 26.4475 60.4603 28.0111C58.972 30.1685 57.7377 30.8935 56.4286 31.6568C53.2001 33.2695 52.4292 35.2777 53.028 39.0328C55.519 39.5134 57.8277 40.8886 59.3488 42.9329V39.8806C62.8162 40.8857 64.8584 41.6166 68.4394 38.6089C68.6278 38.4676 68.7409 38.251 68.7788 38.0252C68.9243 37.0541 70.0828 36.2883 71.0017 36.7724C71.8958 38.2593 71.524 41.4602 71.5951 43.1402C71.67 48.458 64.9988 51.2698 61.2611 47.577C61.5176 49.6977 61.0319 51.9132 59.8951 53.738C60.4978 53.3519 61.1479 53.0222 61.8355 52.7581C63.7435 54.3667 67.1999 54.3663 69.108 52.7581C72.8063 54.1295 75.3644 57.5843 75.3632 61.5096V62.4517C75.3632 64.5334 73.6768 66.2197 71.5951 66.2197H62.7401C61.9608 66.2197 61.3271 65.586 61.3271 64.8067C61.3271 64.0274 61.9608 63.3937 62.7401 63.3937H70.6434C71.3255 63.4105 71.8007 62.6392 71.49 62.0374C71.1161 60.5537 71.2254 58.951 71.8012 57.506C71.9938 57.0232 71.7583 56.4748 71.2755 56.2827C69.3535 55.6422 69.2901 60.359 69.4726 61.5096H62.7406C58.3845 61.648 58.3833 67.9654 62.7406 68.1038H71.6898C72.337 68.0836 72.927 67.9705 73.4796 67.7745V69.0459C73.4796 70.6094 72.2079 71.8719 70.6535 71.8719H63.5976C63.183 72.5877 62.6556 73.2286 62.0341 73.756H70.6535C73.2533 73.756 75.3636 71.6456 75.3636 69.0459V66.6538C78.1165 64.2453 77.5248 59.6113 76.0891 56.6209C79.9278 53.3263 80.4674 47.1128 77.3137 43.1688L77.3127 43.1685Z" fill="#0F2C64"/>
<path d="M50.9605 56.7323C57.8112 56.8534 62.1862 48.8753 57.4697 43.6C52.58 37.9315 42.4652 41.2193 42.4824 48.7248C42.4824 53.1426 46.2884 56.732 50.9606 56.732L50.9605 56.7323ZM44.4043 48.1036C44.7542 45.7709 46.9537 44.4584 49.1993 45.3343C50.1392 45.6194 51.1397 47.0922 51.686 48.3677C52.4981 50.1984 53.8818 52.2443 56.1043 52.5501C52.2071 57.1761 43.773 54.3101 44.4038 48.1036H44.4043Z" fill="#0F2C64"/>
<path d="M29.2963 71.8061C27.742 71.8061 26.4703 70.5345 26.4703 68.9801V62.9986C27.5502 63.6206 35.9149 63.2236 37.303 63.3283C41.6586 63.1904 41.6607 56.8725 37.303 56.7342H30.5709C30.7598 55.5962 30.6761 50.8478 28.7681 51.5068C28.2849 51.699 28.0493 52.2473 28.2424 52.7305C28.8181 54.176 28.9279 55.7783 28.5536 57.2624C28.2432 57.8633 28.7176 58.6359 29.4001 58.6182H37.3034C39.1564 58.6493 39.163 61.4114 37.3034 61.4443H28.3542C26.2725 61.4443 24.5861 59.7579 24.5861 57.6762C24.2745 53.453 26.7234 49.4945 30.8414 47.9734C32.7515 49.5916 36.2038 49.5916 38.1139 47.9734C39.0277 48.322 39.8755 48.7833 40.6195 49.3485C40.5753 48.621 40.611 47.8733 40.7326 47.1629C39.9411 46.6827 39.0841 46.2962 38.1702 46.0043C37.8215 45.8912 37.4447 45.995 37.2 46.2587C35.9732 47.6477 32.9814 47.647 31.7552 46.2587C31.5105 45.995 31.1336 45.8916 30.785 46.0043C25.9525 47.5397 22.7026 51.8448 22.7026 56.7341C22.5512 58.658 23.1475 60.6645 24.5866 61.8781V68.9803C24.5866 71.5801 26.697 73.6904 29.2967 73.6904H39.8381C39.2165 73.1534 38.6887 72.5129 38.2837 71.8064H29.2966L29.2963 71.8061Z" fill="#0F2C64"/>
<path d="M57.5564 64.8059C57.5564 62.9029 58.5927 61.2262 60.1378 60.3405C58.753 58.7109 56.8689 57.4581 54.6459 56.7701C54.3065 56.6666 53.9394 56.7608 53.6946 57.0148C53.0634 57.665 52.0461 58.0511 50.9627 58.0511C49.8794 58.0511 48.8621 57.665 48.2309 57.0148C47.9861 56.7604 47.6186 56.6662 47.2796 56.7701C42.4374 58.2681 39.1875 62.4785 39.1875 67.2455C38.8258 70.6301 41.2935 73.6953 44.8396 73.6891H57.0859C59.5541 73.6891 61.6639 72.1347 62.4272 69.9682C59.7143 69.8176 57.5569 67.5568 57.5569 64.806L57.5564 64.8059Z" fill="#0F2C64"/>
</svg>
