<svg width="38" height="38" viewBox="0 0 38 38" fill="none" xmlns="http://www.w3.org/2000/svg">
<path d="M11.875 14.2502H13.4583M13.4583 14.2502H26.125M13.4583 14.2502V25.3335C13.4583 25.7534 13.6251 26.1562 13.9221 26.4531C14.219 26.75 14.6217 26.9168 15.0417 26.9168H22.9583C23.3783 26.9168 23.781 26.75 24.0779 26.4531C24.3749 26.1562 24.5417 25.7534 24.5417 25.3335V14.2502H13.4583ZM15.8333 14.2502V12.6668C15.8333 12.2469 16.0001 11.8442 16.2971 11.5472C16.594 11.2503 16.9967 11.0835 17.4167 11.0835H20.5833C21.0033 11.0835 21.406 11.2503 21.7029 11.5472C21.9999 11.8442 22.1667 12.2469 22.1667 12.6668V14.2502M17.4167 18.2085V22.9585M20.5833 18.2085V22.9585" stroke="#0F2C64" stroke-width="1.58333" stroke-linecap="round" stroke-linejoin="round"/>
</svg>
