<svg width="31" height="31" viewBox="0 0 31 31" fill="none" xmlns="http://www.w3.org/2000/svg">
<rect width="30" height="30" rx="15" transform="matrix(-1 0 0 1 30 0)" fill="#E6EEFF"/>
<path d="M18.7292 9.68737C18.8988 9.51775 19.1002 9.38319 19.3218 9.29139C19.5434 9.19959 19.781 9.15234 20.0208 9.15234C20.2607 9.15234 20.4983 9.19959 20.7199 9.29139C20.9415 9.38319 21.1429 9.51775 21.3125 9.68737C21.4821 9.85699 21.6167 10.0584 21.7085 10.28C21.8003 10.5016 21.8475 10.7392 21.8475 10.979C21.8475 11.2189 21.8003 11.4565 21.7085 11.6781C21.6167 11.8997 21.4821 12.1011 21.3125 12.2707L12.5938 20.9895L9.04167 21.9582L10.0104 18.4061L18.7292 9.68737Z" stroke="#0F2C64" stroke-width="1.29167" stroke-linecap="round" stroke-linejoin="round"/>
</svg>
