<svg width="44" height="44" viewBox="0 0 44 44" fill="none" xmlns="http://www.w3.org/2000/svg">
<g clip-path="url(#clip0_79_824)">
<path d="M13.9927 16.7959H15.7925M15.7925 16.7959H30.191M15.7925 16.7959V29.3946C15.7925 29.8719 15.9821 30.3297 16.3196 30.6673C16.6572 31.0048 17.115 31.1944 17.5923 31.1944H26.5914C27.0687 31.1944 27.5265 31.0048 27.864 30.6673C28.2015 30.3297 28.3912 29.8719 28.3912 29.3946V16.7959H15.7925ZM18.4922 16.7959V14.9961C18.4922 14.5188 18.6818 14.061 19.0194 13.7234C19.3569 13.3859 19.8147 13.1963 20.292 13.1963H23.8916C24.369 13.1963 24.8268 13.3859 25.1643 13.7234C25.5018 14.061 25.6915 14.5188 25.6915 14.9961V16.7959M20.292 21.2954V26.6949M23.8916 21.2954V26.6949" stroke="#667085" stroke-width="1.79981" stroke-linecap="round" stroke-linejoin="round"/>
</g>
<defs>
<clipPath id="clip0_79_824">
<rect width="21.5977" height="21.5977" fill="white" transform="translate(11.293 11.3965)"/>
</clipPath>
</defs>
</svg>
