<svg width="44" height="44" viewBox="0 0 44 44" fill="none" xmlns="http://www.w3.org/2000/svg">
<g clip-path="url(#clip0_1_17329)">
<path d="M26.1063 14.0961C26.3426 13.8597 26.6232 13.6723 26.932 13.5443C27.2408 13.4164 27.5718 13.3506 27.9061 13.3506C28.2403 13.3506 28.5713 13.4164 28.8801 13.5443C29.1889 13.6723 29.4695 13.8597 29.7059 14.0961C29.9422 14.3324 30.1297 14.613 30.2576 14.9219C30.3856 15.2307 30.4514 15.5616 30.4514 15.8959C30.4514 16.2302 30.3856 16.5611 30.2576 16.87C30.1297 17.1788 29.9422 17.4594 29.7059 17.6957L17.5571 29.8444L12.6077 31.1943L13.9575 26.2448L26.1063 14.0961Z" stroke="#667085" stroke-width="1.79981" stroke-linecap="round" stroke-linejoin="round"/>
</g>
<defs>
<clipPath id="clip0_1_17329">
<rect width="21.5977" height="21.5977" fill="white" transform="translate(10.8076 11.3965)"/>
</clipPath>
</defs>
</svg>
