<svg width="30" height="30" viewBox="0 0 30 30" fill="none" xmlns="http://www.w3.org/2000/svg">
<rect x="-0.5" y="0.5" width="29" height="29" rx="2.14706" transform="matrix(-1 0 0 1 29 0)" fill="white" stroke="#909090"/>
<path d="M18.3125 10.4375C18.4602 10.2898 18.6356 10.1726 18.8287 10.0927C19.0217 10.0127 19.2286 9.97156 19.4375 9.97156C19.6464 9.97156 19.8533 10.0127 20.0463 10.0927C20.2394 10.1726 20.4148 10.2898 20.5625 10.4375C20.7102 10.5853 20.8274 10.7607 20.9074 10.9537C20.9873 11.1467 21.0285 11.3536 21.0285 11.5625C21.0285 11.7715 20.9873 11.9784 20.9074 12.1714C20.8274 12.3644 20.7102 12.5398 20.5625 12.6875L12.9687 20.2813L9.875 21.125L10.7187 18.0313L18.3125 10.4375Z" stroke="#505050" stroke-width="1.125" stroke-linecap="round" stroke-linejoin="round"/>
</svg>
