<svg width="35" height="40" viewBox="0 0 35 40" fill="none" xmlns="http://www.w3.org/2000/svg">
<path d="M0 10C0 6.13401 3.13401 3 7 3H28C31.866 3 35 6.13401 35 10V30C35 33.866 31.866 37 28 37H7C3.13401 37 0 33.866 0 30V10Z" fill="#0F2C64"/>
<path d="M10.5867 19.1098C10.5867 16.0599 11.0979 13.6799 12.1204 11.9698C13.1606 10.2421 14.9412 9.37822 17.4622 9.37822C19.9833 9.37822 21.755 10.2421 22.7776 11.9698C23.8177 13.6799 24.3378 16.0599 24.3378 19.1098C24.3378 22.195 23.8177 24.6102 22.7776 26.3556C21.755 28.0833 19.9833 28.9471 17.4622 28.9471C14.9412 28.9471 13.1606 28.0833 12.1204 26.3556C11.0979 24.6102 10.5867 22.195 10.5867 19.1098ZM21.376 19.1098C21.376 17.6818 21.279 16.4741 21.0851 15.4869C20.9088 14.4996 20.5386 13.6975 19.9744 13.0804C19.4103 12.4458 18.5729 12.1284 17.4622 12.1284C16.3516 12.1284 15.5141 12.4458 14.95 13.0804C14.3859 13.6975 14.0068 14.4996 13.8129 15.4869C13.6366 16.4741 13.5484 17.6818 13.5484 19.1098C13.5484 20.5907 13.6366 21.8336 13.8129 22.8384C13.9892 23.8433 14.3594 24.6543 14.9236 25.2713C15.5053 25.8884 16.3516 26.1969 17.4622 26.1969C18.5729 26.1969 19.4103 25.8884 19.9744 25.2713C20.5562 24.6543 20.9353 23.8433 21.1116 22.8384C21.2879 21.8336 21.376 20.5907 21.376 19.1098Z" fill="white"/>
</svg>
